<svg width="194" height="210" viewBox="0 0 194 210" fill="none" xmlns="http://www.w3.org/2000/svg">
<path d="M36.7234 166H15.7234C13.9501 166 12.6434 165.627 11.8034 164.88C11.0568 164.04 10.6834 162.733 10.6834 160.96V70.24C10.6834 68.4667 11.0568 67.2067 11.8034 66.46C12.6434 65.62 13.9501 65.2 15.7234 65.2H30.2834C32.0568 65.2 33.5501 65.48 34.7634 66.04C36.0701 66.6 37.3301 67.58 38.5434 68.98L65.7034 100.06V70.24C65.7034 68.4667 66.0768 67.2067 66.8234 66.46C67.6634 65.62 68.9701 65.2 70.7434 65.2H91.7434C93.5168 65.2 94.7768 65.62 95.5234 66.46C96.3634 67.2067 96.7834 68.4667 96.7834 70.24V160.96C96.7834 162.733 96.3634 164.04 95.5234 164.88C94.7768 165.627 93.5168 166 91.7434 166H70.7434C68.9701 166 67.6634 165.627 66.8234 164.88C66.0768 164.04 65.7034 162.733 65.7034 160.96V143.74L41.7634 114.76V160.96C41.7634 162.733 41.3434 164.04 40.5034 164.88C39.7568 165.627 38.4968 166 36.7234 166ZM142.834 166H121.134C119.36 166 118.054 165.627 117.214 164.88C116.467 164.04 116.094 162.733 116.094 160.96V70.24C116.094 68.4667 116.467 67.2067 117.214 66.46C118.054 65.62 119.36 65.2 121.134 65.2H183.574C185.347 65.2 186.607 65.62 187.354 66.46C188.194 67.2067 188.614 68.4667 188.614 70.24V86.9C188.614 88.6733 188.194 89.98 187.354 90.82C186.607 91.5667 185.347 91.94 183.574 91.94H147.874V106.5H172.234C174.007 106.5 175.267 106.92 176.014 107.76C176.854 108.507 177.274 109.767 177.274 111.54V128.34C177.274 130.113 176.854 131.42 176.014 132.26C175.267 133.007 174.007 133.38 172.234 133.38H147.874V160.96C147.874 162.733 147.454 164.04 146.614 164.88C145.867 165.627 144.607 166 142.834 166Z" fill="#FBABBF"/>
</svg>
